<mxfile host="app.diagrams.net" modified="2024-06-21T10:36:21.070Z" agent="Mozilla/5.0 (Windows NT 10.0; Win64; x64) AppleWebKit/537.36 (KHTML, like Gecko) Chrome/124.0.0.0 YaBrowser/24.6.0.0 Safari/537.36" version="24.6.0" etag="VZAw9b1YCUad-RuWUx7f" type="github">
  <diagram name="Страница — 1" id="Y-PzrRvo8cB5_hikBWvT">
    <mxGraphModel>
      <root>
        <mxCell id="0" />
        <mxCell id="1" parent="0" />
      </root>
    </mxGraphModel>
  </diagram>
</mxfile>
